<svg width="75" height="88" viewBox="0 0 75 88" fill="none" xmlns="http://www.w3.org/2000/svg">
<path fill-rule="evenodd" clip-rule="evenodd" d="M21.2547 69.1751V74.6203H30.1585V76.5667H19.3276V67.2287H30.1585V69.1751H21.2547Z" fill="#575756"/>
<path fill-rule="evenodd" clip-rule="evenodd" d="M21.2547 79.3497V85.045H30.1585V86.9914H19.3276V77.4004H30.1585V79.3497H21.2547Z" fill="#575756"/>
<path fill-rule="evenodd" clip-rule="evenodd" d="M34.969 74.6203H44.0237V67.2345H45.9479V76.5695L33.042 76.5667L33.0334 67.2287H34.9633L34.969 74.6203Z" fill="#575756"/>
<path fill-rule="evenodd" clip-rule="evenodd" d="M44.0123 79.3497H34.9633V86.9914H33.0363V77.4033L45.9479 77.4004L45.9508 86.9971H44.0237L44.0123 79.3497Z" fill="#575756"/>
<path fill-rule="evenodd" clip-rule="evenodd" d="M48.9993 79.3497V86.9971L47.0694 87V77.4004H58.424L60.8464 79.3497H48.9993Z" fill="#575756"/>
<path fill-rule="evenodd" clip-rule="evenodd" d="M51.8544 70.3337C51.3819 69.9226 50.2945 69.1463 49.6227 69.4884C49.1844 69.7098 49.0392 70.4027 48.9994 70.8541V76.5667H47.0723V70.7333C47.1719 69.5373 47.6387 68.3154 48.7574 67.7491C50.266 66.9843 51.9625 67.8554 53.1182 68.8646L53.1239 68.8703L74.0029 87.0029H71.0454L51.8572 70.3394L51.8544 70.3337Z" fill="#575756"/>
<path fill-rule="evenodd" clip-rule="evenodd" d="M7.42363 76.5552L19.339 86.977H16.3929L5.36562 77.3314L5.34 77.3055C4.91587 76.8772 4.654 76.2763 4.83902 75.6697C5.07812 74.8819 5.86375 74.6088 6.60384 74.6088H9.5471C10.5633 74.6088 11.4258 74.1747 11.9211 73.2604C12.348 72.4727 12.4135 71.4549 12.052 70.6327C11.5966 69.592 10.6288 69.178 9.5471 69.178H0.927953V67.2316H9.5471C11.403 67.2316 13.0483 68.0912 13.8168 69.8478C14.4203 71.2278 14.3292 72.8809 13.6119 74.2006C12.7779 75.7387 11.2692 76.5581 9.5471 76.5581H7.42363V76.5552Z" fill="#575756"/>
<path fill-rule="evenodd" clip-rule="evenodd" d="M0 0H71.9278V64.7074H55.9704L21.6788 34.7097H29.4981C35.0487 34.7097 39.9077 32.0734 42.6005 27.114C44.909 22.8619 45.2078 17.5231 43.2608 13.0726C40.7844 7.40884 35.4786 4.65461 29.4981 4.65461H0V0ZM1.00765 1.01775V3.63973H29.4981C35.8742 3.63973 41.5387 6.62685 44.1803 12.6643C46.2525 17.3994 45.9394 23.0775 43.4829 27.6056C40.6136 32.8927 35.4131 35.7275 29.4981 35.7275H24.3801L56.3461 63.6925H70.923V1.01775H1.00765Z" fill="#575756"/>
<path d="M69.0158 59.5209V60.4926H63.2915V59.5209H63.9804C63.4452 59.1529 63.1777 58.3479 63.1777 57.1088C63.1777 55.7489 63.5079 54.7829 64.1711 54.2108C63.7327 53.8658 63.4395 53.4345 63.2887 52.9142C63.1805 52.5375 63.1293 51.997 63.1293 51.2955C63.1293 50.2692 63.2261 49.5303 63.4168 49.076C63.7157 48.363 64.2935 48.0065 65.1474 48.0065H69.013V49.0272H65.1474C64.5497 49.0272 64.1483 49.2687 63.9434 49.7574C63.8153 50.0593 63.7498 50.5739 63.7498 51.2955C63.7498 52.9257 64.2138 53.7421 65.1446 53.7421H69.0101V54.7628H65.1446C64.2138 54.7628 63.7498 55.5505 63.7498 57.126C63.7498 57.724 63.8409 58.2358 64.0231 58.6584C64.2593 59.2334 64.6322 59.5209 65.1446 59.5209H69.0158ZM66.2263 37.2656V46.0774C66.5052 45.9912 66.7813 45.8992 67.0603 45.8014C68.0537 45.2926 68.5518 44.1656 68.5518 42.4176C68.5518 41.6068 68.4721 40.937 68.3099 40.408C68.1163 39.7812 67.769 39.2148 67.2681 38.706L67.5726 37.7342C67.7121 37.8636 67.8459 37.993 67.974 38.1223C68.7425 39.051 69.1297 40.4827 69.1297 42.4147C69.1297 43.5819 68.9304 44.6227 68.5376 45.5398C68.0138 46.7588 67.2453 47.3712 66.2291 47.3712C65.2129 47.3712 64.4017 46.7559 63.8551 45.5254C63.4282 44.5652 63.2147 43.5014 63.2147 42.3342C63.2147 39.7208 63.9576 38.0965 65.4435 37.4582C65.711 37.3921 65.9729 37.3288 66.2291 37.2627L66.2263 37.2656ZM65.6484 46.1263V38.4012C64.8998 38.7146 64.3931 39.2551 64.1255 40.0198C63.932 40.5718 63.8381 41.3423 63.8381 42.3371C63.8381 43.3318 63.9291 44.0908 64.1113 44.5882C64.3789 45.3213 64.8913 45.8359 65.6513 46.1263H65.6484ZM58.6091 27.3383V26.3493H69.0158V27.3383H67.974C68.381 27.597 68.6913 28.2468 68.9048 29.2818C69.0557 30.0149 69.1297 30.7624 69.1297 31.5156C69.1297 32.726 68.9304 33.8041 68.5376 34.7557C68.0025 36.0293 67.2225 36.6676 66.1949 36.6676C65.1674 36.6676 64.3561 36.0293 63.821 34.7557C63.4139 33.7955 63.2118 32.7145 63.2118 31.5156C63.2118 29.2588 63.5847 27.8673 64.3333 27.3383H58.6091ZM63.8352 31.5156C63.8352 32.4557 63.9946 33.3039 64.3163 34.0571C64.7432 35.0605 65.3695 35.5636 66.1921 35.5636C67.0147 35.5636 67.6523 35.0662 68.0679 34.0744C68.3896 33.3182 68.549 32.4644 68.549 31.5156C68.549 30.5669 68.3896 29.7188 68.0679 28.9741C67.641 27.9823 67.0147 27.4849 66.1921 27.4849C65.3695 27.4849 64.7318 27.9765 64.3163 28.9598C63.9946 29.7159 63.8352 30.5697 63.8352 31.5185V31.5156ZM63.2887 25.4753V24.423H69.013V25.4753H63.2887ZM62.1672 24.9405C62.1672 25.5126 62.0135 25.8001 61.7032 25.8001C61.5637 25.8001 61.447 25.6938 61.3502 25.4753C61.2762 25.3028 61.2392 25.136 61.2392 24.9721C61.2392 24.4316 61.3958 24.1614 61.7032 24.1614C62.0106 24.1614 62.1672 24.4201 62.1672 24.9376V24.9405ZM64.6038 15.3697C64.0914 16.1143 63.8352 17.1292 63.8352 18.4143V18.4804C63.8352 19.3975 64.0003 20.2342 64.3333 20.9903C64.7603 21.9735 65.3808 22.4652 66.1921 22.4652C67.0033 22.4652 67.6153 21.962 68.0537 20.9587C68.3839 20.191 68.5518 19.3458 68.5518 18.4172C68.5518 17.1637 68.29 16.1488 67.7662 15.3726H68.6173C68.9589 16.1287 69.1297 17.1436 69.1297 18.4172C69.1297 19.6908 68.9304 20.7057 68.5376 21.6573C68.0025 22.9309 67.2225 23.5692 66.1949 23.5692C65.1674 23.5692 64.3561 22.9309 63.821 21.6573C63.4139 20.697 63.2118 19.616 63.2118 18.4172C63.2118 17.2183 63.394 16.2264 63.7584 15.3726H64.6095L64.6038 15.3697ZM63.2574 5.5056V4.48498H69.013V5.5056H68.0025C68.771 6.67285 69.1581 8.00972 69.1581 9.52196C69.1581 10.7208 68.956 11.799 68.549 12.7621C68.0138 14.0357 67.2282 14.6739 66.1921 14.6739C65.156 14.6739 64.359 14.0357 63.8039 12.7621C63.3883 11.8018 63.1777 10.7208 63.1777 9.52196C63.1777 8.85209 63.2631 8.13334 63.4339 7.36859C63.6587 6.36522 63.9576 5.74423 64.3305 5.5056H63.2574ZM63.7868 9.52196C63.7868 10.4707 63.9519 11.3303 64.285 12.0979C64.7119 13.0927 65.3495 13.5872 66.1921 13.5872C67.0347 13.5872 67.6353 13.1186 68.085 12.1784C68.438 11.4338 68.6145 10.603 68.6145 9.68296L68.5831 9.52196C68.5831 8.58184 68.418 7.73372 68.085 6.98047C67.658 5.99722 67.0261 5.5056 66.1921 5.5056C65.3581 5.5056 64.7233 5.99722 64.285 6.98047C63.9548 7.72509 63.7868 8.57321 63.7868 9.52196Z" fill="#575756"/>
<path fill-rule="evenodd" clip-rule="evenodd" d="M47.226 64.7073H0V10.4362H29.4981C33.1843 10.4362 36.4748 11.8679 38.0262 15.4099C39.253 18.213 39.0338 21.6602 37.5821 24.3339C35.897 27.436 32.9537 28.9281 29.4981 28.9281H19.8144C17.5173 28.9281 15.0494 29.7446 14.3036 32.197C13.7314 34.083 14.5654 35.9373 15.8777 37.2685L15.9517 37.3432L47.2288 64.7045L47.226 64.7073ZM44.5275 63.6896L15.2657 38.0907L15.1632 37.9901C13.5806 36.3858 12.6583 34.152 13.3415 31.9037C14.2239 29.0029 17.0447 27.9161 19.8144 27.9161H29.4981C32.5808 27.9161 35.1911 26.6281 36.6997 23.8509C38.0005 21.456 38.2026 18.3367 37.1039 15.8268C35.7177 12.6586 32.7715 11.4597 29.4981 11.4597H1.00765V63.6925H44.5275V63.6896Z" fill="#575756"/>
</svg>
