<svg viewBox="0 0 113 102" fill="none" xmlns="http://www.w3.org/2000/svg" role="img" aria-label="Reha Medica">
<path fill-rule="evenodd" clip-rule="evenodd" d="M0 0H112.752V101.152H87.7374L33.983 54.2589H46.2403C54.9413 54.2589 62.558 50.1377 66.7791 42.3851C70.3978 35.7381 70.8663 27.3924 67.8143 20.4353C63.9323 11.5816 55.615 7.27617 46.2403 7.27617H0V0ZM1.57957 1.59096V5.6897H46.2403C56.2353 5.6897 65.1147 10.3592 69.2555 19.7971C72.5039 27.1991 72.0131 36.0752 68.1623 43.1536C63.6646 51.4185 55.5124 55.8498 46.2403 55.8498H38.2175L88.3263 99.5653H111.177V1.59096H1.57957Z" fill="currentColor"/>
<path fill-rule="evenodd" clip-rule="evenodd" d="M74.0299 101.152H0V16.3141H46.2402C52.0186 16.3141 57.1767 18.5522 59.6086 24.0891C61.5317 28.471 61.1881 33.8596 58.9125 38.0392C56.2709 42.8885 51.6572 45.221 46.2402 45.221H31.0603C27.4595 45.221 23.5909 46.4973 22.4218 50.3309C21.5249 53.2791 22.8323 56.1779 24.8893 58.2588L25.0053 58.3756L74.0344 101.147L74.0299 101.152ZM69.7999 99.5608L23.93 59.5441L23.7694 59.3868C21.2885 56.879 19.8427 53.387 20.9136 49.8725C22.2969 45.3378 26.7188 43.639 31.0603 43.639H46.2402C51.0727 43.639 55.1644 41.6256 57.5292 37.2842C59.5684 33.5405 59.8852 28.6642 58.1629 24.7408C55.9898 19.7881 51.3716 17.914 46.2402 17.914H1.57957V99.5652H69.7999V99.5608Z" fill="currentColor"/>
</svg>
