<svg width="117" height="137" viewBox="0 0 117 137" fill="none" xmlns="http://www.w3.org/2000/svg">
<path fill-rule="evenodd" clip-rule="evenodd" d="M33.3181 108.136V116.648H47.2755V119.69H30.2973V105.093H47.2755V108.136H33.3181Z" fill="white"/>
<path fill-rule="evenodd" clip-rule="evenodd" d="M33.3181 124.041V132.944H47.2755V135.987H30.2973V120.994H47.2755V124.041H33.3181Z" fill="white"/>
<path fill-rule="evenodd" clip-rule="evenodd" d="M54.8163 116.648H69.0101V105.102H72.0265V119.695L51.7955 119.69L51.7821 105.093H54.8074L54.8163 116.648Z" fill="white"/>
<path fill-rule="evenodd" clip-rule="evenodd" d="M68.9923 124.041H54.8074V135.987H51.7866V120.998L72.0265 120.994L72.0309 135.996H69.0101L68.9923 124.041Z" fill="white"/>
<path fill-rule="evenodd" clip-rule="evenodd" d="M76.8098 124.041V135.996L73.7845 136V120.994H91.5836L95.3808 124.041H76.8098Z" fill="white"/>
<path fill-rule="evenodd" clip-rule="evenodd" d="M81.2852 109.947C80.5445 109.304 78.84 108.091 77.787 108.626C77.0998 108.972 76.8723 110.055 76.8098 110.76V119.69H73.789V110.572C73.9452 108.702 74.6769 106.792 76.4305 105.907C78.7954 104.711 81.4548 106.073 83.2664 107.65L83.2753 107.659L116.004 136.004H111.368L81.2897 109.956L81.2852 109.947Z" fill="white"/>
<path fill-rule="evenodd" clip-rule="evenodd" d="M11.637 119.672L30.3152 135.964H25.697L8.41097 120.886L8.37081 120.845C7.70597 120.176 7.29546 119.237 7.58549 118.288C7.9603 117.057 9.19183 116.63 10.352 116.63H14.9657C16.5587 116.63 17.9107 115.951 18.6871 114.522C19.3564 113.291 19.459 111.7 18.8923 110.414C18.1784 108.787 16.6613 108.14 14.9657 108.14H1.45463V105.098H14.9657C17.875 105.098 20.4541 106.441 21.6588 109.187C22.6048 111.345 22.462 113.929 21.3375 115.992C20.0302 118.396 17.6653 119.677 14.9657 119.677H11.637V119.672Z" fill="white"/>
<path fill-rule="evenodd" clip-rule="evenodd" d="M0 0H112.752V101.152H87.7374L33.983 54.2589H46.2403C54.9413 54.2589 62.558 50.1377 66.7791 42.3851C70.3978 35.7381 70.8663 27.3924 67.8143 20.4353C63.9323 11.5816 55.615 7.27617 46.2403 7.27617H0V0ZM1.57957 1.59096V5.6897H46.2403C56.2353 5.6897 65.1147 10.3592 69.2555 19.7971C72.5039 27.1991 72.0131 36.0752 68.1623 43.1536C63.6646 51.4185 55.5124 55.8498 46.2403 55.8498H38.2175L88.3263 99.5653H111.177V1.59096H1.57957Z" fill="white"/>
<path d="M108.187 93.0441V94.5632H99.2138V93.0441H100.294C99.4547 92.4689 99.0353 91.2105 99.0353 89.2735C99.0353 87.1477 99.5529 85.6376 100.593 84.7433C99.9054 84.204 99.4458 83.5298 99.2093 82.7164C99.0397 82.1276 98.9594 81.2827 98.9594 80.1861C98.9594 78.5817 99.1111 77.4267 99.4101 76.7166C99.8786 75.602 100.784 75.0447 102.123 75.0447H108.182V76.6402H102.123C101.186 76.6402 100.557 77.0177 100.236 77.7817C100.035 78.2536 99.9321 79.0581 99.9321 80.1861C99.9321 82.7344 100.659 84.0107 102.119 84.0107H108.178V85.6062H102.119C100.659 85.6062 99.9321 86.8376 99.9321 89.3004C99.9321 90.2352 100.075 91.0352 100.36 91.6959C100.731 92.5947 101.315 93.0441 102.119 93.0441H108.187ZM103.814 58.2543V72.0291C104.251 71.8943 104.684 71.7505 105.122 71.5976C106.679 70.8022 107.46 69.0404 107.46 66.3079C107.46 65.0406 107.335 63.9934 107.08 63.1665C106.777 62.1867 106.233 61.3014 105.447 60.5059L105.925 58.9868C106.143 59.1891 106.353 59.3913 106.554 59.5936C107.759 61.0452 108.365 63.2833 108.365 66.3034C108.365 68.1281 108.053 69.755 107.437 71.1887C106.616 73.0942 105.412 74.0515 103.819 74.0515C102.226 74.0515 100.954 73.0897 100.097 71.1662C99.4279 69.6651 99.0933 68.0023 99.0933 66.1776C99.0933 62.0923 100.258 59.5531 102.587 58.5554C103.006 58.452 103.417 58.3531 103.819 58.2498L103.814 58.2543ZM102.908 72.1055V60.0295C101.735 60.5194 100.941 61.3643 100.521 62.5597C100.218 63.4226 100.07 64.6271 100.07 66.1821C100.07 67.7371 100.213 68.9236 100.499 69.7011C100.918 70.8471 101.721 71.6516 102.913 72.1055H102.908ZM91.8737 42.7357V41.1897H108.187V42.7357H106.554C107.192 43.1402 107.678 44.1559 108.013 45.7738C108.249 46.9198 108.365 48.0883 108.365 49.2658C108.365 51.1579 108.053 52.8432 107.437 54.3308C106.598 56.3217 105.376 57.3195 103.765 57.3195C102.154 57.3195 100.883 56.3217 100.044 54.3308C99.4056 52.8297 99.0888 51.1399 99.0888 49.2658C99.0888 45.7378 99.6733 43.5626 100.847 42.7357H91.8737ZM100.066 49.2658C100.066 50.7354 100.316 52.0612 100.82 53.2387C101.489 54.8072 102.471 55.5937 103.761 55.5937C105.05 55.5937 106.05 54.8162 106.701 53.2657C107.205 52.0837 107.455 50.7489 107.455 49.2658C107.455 47.7827 107.205 46.4569 106.701 45.2929C106.032 43.7424 105.05 42.9649 103.761 42.9649C102.471 42.9649 101.472 43.7334 100.82 45.2704C100.316 46.4524 100.066 47.7872 100.066 49.2703V49.2658ZM99.2093 39.8234V38.1785H108.182V39.8234H99.2093ZM97.4512 38.9875C97.4512 39.8818 97.2103 40.3313 96.7239 40.3313C96.5053 40.3313 96.3223 40.165 96.1706 39.8234C96.0546 39.5538 95.9966 39.2931 95.9966 39.0369C95.9966 38.192 96.242 37.7695 96.7239 37.7695C97.2058 37.7695 97.4512 38.174 97.4512 38.983V38.9875ZM101.271 24.0262C100.468 25.1902 100.066 26.7766 100.066 28.7856V28.8889C100.066 30.3226 100.325 31.6304 100.847 32.8124C101.516 34.3494 102.489 35.1179 103.761 35.1179C105.032 35.1179 105.992 34.3315 106.679 32.763C107.196 31.563 107.46 30.2417 107.46 28.7901C107.46 26.8306 107.049 25.2441 106.228 24.0307H107.562C108.098 25.2127 108.365 26.7991 108.365 28.7901C108.365 30.781 108.053 32.3675 107.437 33.8551C106.598 35.846 105.376 36.8437 103.765 36.8437C102.154 36.8437 100.883 35.846 100.044 33.8551C99.4056 32.354 99.0888 30.6642 99.0888 28.7901C99.0888 26.916 99.3744 25.3655 99.9455 24.0307H101.28L101.271 24.0262ZM99.1602 8.60646V7.011H108.182V8.60646H106.598C107.803 10.4311 108.41 12.5209 108.41 14.8849C108.41 16.759 108.093 18.4443 107.455 19.9499C106.616 21.9409 105.385 22.9386 103.761 22.9386C102.136 22.9386 100.887 21.9409 100.017 19.9499C99.3655 18.4488 99.0353 16.759 99.0353 14.8849C99.0353 13.8377 99.1691 12.7142 99.4369 11.5187C99.7894 9.95023 100.258 8.97948 100.842 8.60646H99.1602ZM99.9902 14.8849C99.9902 16.368 100.249 17.7118 100.771 18.9117C101.44 20.4667 102.44 21.2397 103.761 21.2397C105.081 21.2397 106.023 20.5072 106.728 19.0376C107.281 17.8736 107.558 16.5747 107.558 15.1366L107.509 14.8849C107.509 13.4153 107.25 12.0895 106.728 10.912C106.059 9.37497 105.068 8.60646 103.761 8.60646C102.453 8.60646 101.458 9.37497 100.771 10.912C100.253 12.076 99.9902 13.4018 99.9902 14.8849Z" fill="white"/>
<path fill-rule="evenodd" clip-rule="evenodd" d="M74.0299 101.152H0V16.3141H46.2402C52.0186 16.3141 57.1767 18.5522 59.6086 24.0891C61.5317 28.471 61.1881 33.8596 58.9125 38.0392C56.2709 42.8885 51.6572 45.221 46.2402 45.221H31.0603C27.4595 45.221 23.5909 46.4973 22.4218 50.3309C21.5249 53.2791 22.8323 56.1779 24.8893 58.2588L25.0053 58.3756L74.0344 101.147L74.0299 101.152ZM69.7999 99.5608L23.93 59.5441L23.7694 59.3868C21.2885 56.879 19.8427 53.387 20.9136 49.8725C22.2969 45.3378 26.7188 43.639 31.0603 43.639H46.2402C51.0727 43.639 55.1644 41.6256 57.5292 37.2842C59.5684 33.5405 59.8852 28.6642 58.1629 24.7408C55.9898 19.7881 51.3716 17.914 46.2402 17.914H1.57957V99.5652H69.7999V99.5608Z" fill="white"/>
</svg>
