<svg width="101" height="39" viewBox="0 0 101 39" fill="none" xmlns="http://www.w3.org/2000/svg">
<g clip-path="url(#clip0_12_419)">
<path fill-rule="evenodd" clip-rule="evenodd" d="M14.4653 0L28.8269 19.951L28.8139 7.25586C28.8096 3.68548 28.2755 0.958519 23.9035 1.04642V0H35.1255V1.04642C31.054 1.61776 30.6691 3.31505 30.6691 7.25586V39H29.8129L6.8413 7.25586V31.4972C6.8413 35.1324 8.13864 37.0913 12.0501 37.0913V38.1273H0V37.0913C3.96121 37.0516 5.01205 35.1031 5.01205 31.4972V4.5875L4.28554 3.57038C3.56768 2.56372 2.93415 1.9003 2.37845 1.57381C1.83141 1.25779 1.03571 1.08409 0 1.04642V0H14.4653ZM53.5844 2.19748L53.5996 13.0384C54.1769 12.1698 54.9207 11.2846 55.7964 10.6232C59.0614 8.15997 63.9134 10.0644 63.8053 15.0433C63.7253 18.7351 60.8863 22.0794 58.0019 24.279C56.7499 25.2333 55.3661 26.0809 53.6039 27.2466V33.0752C53.725 36.7335 54.8796 37.0913 58.2008 37.0913V38.1273H37.4844V37.0913C41.8176 37.0913 42.2651 35.595 42.2651 31.6018V6.52546C42.2651 3.63735 42.3733 1.04642 38.6131 1.04642H37.4844V0H69.0963V10.9393H68.0692C67.4011 3.5055 63.4701 2.19748 56.5488 2.19748H53.5823H53.5844ZM98.9978 0L81.9789 35.9863H85.4925C94.0009 35.9863 98.494 32.8471 100.025 24.346H101L99.6227 38.1273H68.5081L85.553 2.08237L83.6049 2.09074C77.2479 2.11586 73.7213 3.72106 72.1602 11.1611H71.2369L72.1602 0H98.9978ZM53.2104 13.1095C52.6417 12.2598 51.9563 11.3913 51.0957 10.7446C47.8805 8.33158 43.1019 10.1963 43.2079 15.0726C43.2857 18.689 46.0836 21.9643 48.9248 24.1178C50.1573 25.0512 51.5195 25.8821 53.2558 27.0248L53.2125 13.1095H53.2104Z" fill="#312783"/>
</g>
<defs>
<clipPath id="clip0_12_419">
<rect width="101" height="39" fill="white"/>
</clipPath>
</defs>
</svg>
