<svg width="26" height="26" viewBox="0 0 26 26" fill="none" xmlns="http://www.w3.org/2000/svg">
<path d="M6.25619 9.21098C6.25599 8.96472 6.15801 8.72869 5.98391 8.55459C5.8099 8.38049 5.5738 8.28261 5.32762 8.28241H3.45982C3.21365 8.2826 2.97753 8.38049 2.80353 8.55459C2.62943 8.7287 2.53155 8.9647 2.53125 9.21098V11.0788C2.53154 11.3249 2.62943 11.5611 2.80353 11.7351C2.97754 11.9092 3.21364 12.0071 3.45982 12.0073H5.32762C5.57378 12.0071 5.8099 11.9092 5.98391 11.7351C6.15801 11.5611 6.25599 11.325 6.25619 11.0788V9.21098ZM3.45982 11.0788V9.21098H5.32762L5.32829 11.0788H3.45982Z" fill="white"/>
<path d="M5.32762 13.7729H3.45982C3.21365 13.7731 2.97753 13.8711 2.80353 14.0451C2.62943 14.2192 2.53155 14.4553 2.53125 14.7015V16.5695C2.53154 16.8157 2.62943 17.0517 2.80353 17.2258C2.97754 17.3999 3.21364 17.4978 3.45982 17.498H5.32762C5.57378 17.4978 5.8099 17.3998 5.98391 17.2258C6.15801 17.0517 6.25599 16.8157 6.25619 16.5695V14.7015C6.25599 14.4553 6.15801 14.2192 5.98391 14.0451C5.8099 13.8711 5.5738 13.7731 5.32762 13.7729ZM3.45982 16.5695V14.7015H5.32762L5.32829 16.5695H3.45982Z" fill="white"/>
<path d="M12.0221 8.28241H10.1542C9.90799 8.2826 9.67187 8.38049 9.49787 8.55459C9.32376 8.7287 9.22578 8.9647 9.22559 9.21098V11.0788C9.22578 11.3249 9.32376 11.5611 9.49787 11.7351C9.67188 11.9092 9.90798 12.0071 10.1542 12.0073H12.0221C12.2683 12.0071 12.5044 11.9092 12.6785 11.7351C12.8525 11.5611 12.9505 11.325 12.9507 11.0788V9.21098C12.9505 8.96472 12.8525 8.72869 12.6785 8.55459C12.5044 8.38049 12.2683 8.28261 12.0221 8.28241ZM10.1542 11.0788V9.21098H12.0221L12.0228 11.0788H10.1542Z" fill="white"/>
<path d="M12.0221 13.5129H10.1542C9.90799 13.5131 9.67187 13.6111 9.49787 13.7851C9.32376 13.9592 9.22578 14.1953 9.22559 14.4415V16.3092C9.22578 16.5555 9.32376 16.7915 9.49787 16.9656C9.67188 17.1396 9.90798 17.2376 10.1542 17.2378H12.0221C12.2683 17.2376 12.5044 17.1396 12.6785 16.9656C12.8525 16.7915 12.9505 16.5555 12.9507 16.3092V14.4415C12.9505 14.1953 12.8525 13.9592 12.6785 13.7851C12.5044 13.6111 12.2683 13.5131 12.0221 13.5129ZM10.1542 16.3092V14.4415H12.0221L12.0228 16.3092H10.1542Z" fill="white"/>
<path d="M19.1817 10.6093C19.305 10.6093 19.4231 10.5604 19.5101 10.4734C19.5972 10.3862 19.6461 10.2681 19.646 10.145V9.22666C19.6458 8.97624 19.5462 8.73615 19.3692 8.55915C19.1921 8.38214 18.952 8.28261 18.7016 8.28241H16.8653C16.6149 8.2826 16.3748 8.38213 16.1978 8.55915C16.0207 8.73616 15.9211 8.97624 15.9209 9.22666V11.0632V11.0631C15.9212 11.3135 16.0207 11.5536 16.1978 11.7306C16.3748 11.9076 16.6149 12.0072 16.8653 12.0073H17.7835C17.9494 12.0073 18.1027 11.9188 18.1856 11.7752C18.2684 11.6316 18.2684 11.4546 18.1856 11.3109C18.1027 11.1673 17.9493 11.0788 17.7835 11.0788L16.8495 11.0631L16.8653 9.21099L18.7175 9.22666V10.145C18.7175 10.2681 18.7663 10.3862 18.8535 10.4733C18.9405 10.5604 19.0586 10.6093 19.1817 10.6093Z" fill="white"/>
<path d="M22.1763 15.2625L22.1777 6.00549L22.1763 5.99872V2.82201C22.1759 2.44429 22.0257 2.08225 21.7585 1.81519C21.4915 1.54813 21.1294 1.398 20.7517 1.39763H17.6332L17.6333 0.464328C17.6333 0.298443 17.5448 0.145122 17.4012 0.0622441C17.2574 -0.020748 17.0805 -0.020748 16.9369 0.0622441C16.7931 0.14514 16.7047 0.298451 16.7047 0.464328V1.39763H11.5525V0.464328C11.5525 0.298443 11.464 0.145122 11.3204 0.0622441C11.1767 -0.020748 10.9997 -0.020748 10.8561 0.0622441C10.7124 0.14514 10.6239 0.298451 10.6239 0.464328V1.39763H5.47172V0.464328C5.47172 0.298443 5.38321 0.145122 5.23958 0.0622441C5.09594 -0.020748 4.91893 -0.020748 4.77529 0.0622441C4.63165 0.14514 4.54315 0.298451 4.54315 0.464328V1.39763H1.42438C1.04676 1.39811 0.684717 1.54833 0.417659 1.81529C0.150701 2.08235 0.000470477 2.44439 0 2.82201V19.3843C0.000386905 19.762 0.150602 20.124 0.417659 20.3911C0.684618 20.6582 1.04666 20.8084 1.42438 20.8089H11.0882C11.2541 20.8089 11.4074 20.7204 11.4903 20.5767C11.5732 20.4331 11.5732 20.2562 11.4903 20.1124C11.4074 19.9688 11.2541 19.8803 11.0882 19.8803H1.42438C1.29293 19.8801 1.16691 19.8278 1.07395 19.7348C0.980996 19.6419 0.928666 19.5158 0.92857 19.3843V2.82201C0.928667 2.69056 0.980996 2.56454 1.07395 2.47158C1.1669 2.37863 1.29294 2.3263 1.42438 2.3262H4.54315V3.2595C4.54315 3.42539 4.63165 3.57871 4.77529 3.66159C4.91893 3.74448 5.09593 3.74448 5.23958 3.66159C5.38321 3.57869 5.47172 3.42538 5.47172 3.2595V2.3262H10.6239V3.2595C10.6239 3.42539 10.7124 3.57871 10.8561 3.66159C10.9997 3.74446 11.1767 3.74448 11.3204 3.66159C11.464 3.57869 11.5525 3.42538 11.5525 3.2595V2.3262H16.7047V3.2595C16.7047 3.42539 16.7931 3.57871 16.9369 3.66159C17.0805 3.74448 17.2574 3.74448 17.4012 3.66159C17.5448 3.57869 17.6333 3.42538 17.6333 3.2595V2.3262H20.7518H20.7517C20.8832 2.3263 21.0093 2.37863 21.1022 2.47158C21.1952 2.56444 21.2475 2.69047 21.2477 2.82201V5.54112H4.15134C3.98546 5.54112 3.83213 5.62953 3.74926 5.77326C3.66626 5.9169 3.66626 6.0938 3.74926 6.23755C3.83215 6.38119 3.98546 6.46969 4.15134 6.46969H21.2477V15.0777C19.8853 14.9311 18.519 15.3158 17.4331 16.1516C16.3474 16.9874 15.6258 18.2099 15.4188 19.5643C15.2118 20.9189 15.5353 22.301 16.3219 23.423C17.1084 24.545 18.2976 25.3203 19.6414 25.5873C20.9853 25.8545 22.3806 25.5928 23.5365 24.8569C24.6924 24.1211 25.5199 22.9677 25.8465 21.6369C26.1732 20.3061 25.974 18.9007 25.2903 17.7131C24.6066 16.5257 23.4912 15.6477 22.1763 15.2621L22.1763 15.2625ZM20.7055 24.7107C19.842 24.7108 18.9979 24.4546 18.2799 23.975C17.5619 23.4952 17.0022 22.8134 16.6718 22.0156C16.3413 21.2178 16.2548 20.34 16.4233 19.4931C16.5918 18.6461 17.0077 17.8682 17.6182 17.2575C18.2288 16.647 19.0068 16.2312 19.8536 16.0627C20.7006 15.8943 21.5784 15.9807 22.3764 16.3112C23.1741 16.6417 23.856 17.2012 24.3358 17.9192C24.8154 18.6372 25.0715 19.4814 25.0715 20.3448C25.0701 21.5023 24.6097 22.612 23.7913 23.4304C22.9728 24.2489 21.8632 24.7093 20.7057 24.7106L20.7055 24.7107Z" fill="white"/>
<path d="M22.4709 19.8809H21.1678V17.7919C21.1678 17.626 21.0793 17.4727 20.9357 17.3898C20.792 17.3068 20.615 17.3068 20.4714 17.3898C20.3278 17.4727 20.2393 17.626 20.2393 17.7919V20.3451C20.2393 20.4683 20.2881 20.5864 20.3753 20.6735C20.4623 20.7606 20.5804 20.8095 20.7035 20.8094H22.4709C22.6368 20.8094 22.79 20.721 22.873 20.5773C22.9559 20.4336 22.9559 20.2567 22.873 20.113C22.79 19.9693 22.6368 19.8808 22.4709 19.8808L22.4709 19.8809Z" fill="white"/>
</svg>
