<svg width="14" height="11" viewBox="0 0 14 11" fill="none" xmlns="http://www.w3.org/2000/svg">
<path d="M13.7973 0.207616L13.7961 0.205526C13.7871 0.195942 13.7765 0.18924 13.767 0.180375C13.7455 0.158828 13.7227 0.138939 13.6987 0.120706C13.6826 0.109032 13.6649 0.100889 13.6481 0.090872C13.6282 0.0778285 13.6076 0.0660093 13.5864 0.0554883C13.5627 0.0458317 13.5386 0.0376167 13.514 0.0309873C13.4969 0.0256546 13.4807 0.0181601 13.4632 0.0144127V0.0144848C13.42 0.0048282 13.376 0 13.3319 0H0.6681C0.623991 0 0.580015 0.0048282 0.53683 0.0144848C0.519332 0.018232 0.503088 0.0256547 0.48625 0.0307711H0.486184C0.461621 0.037617 0.437388 0.0458321 0.413616 0.0554877C0.392486 0.0660089 0.371883 0.0777551 0.351877 0.0906541C0.335039 0.100671 0.317474 0.10903 0.301297 0.120704C0.277327 0.138936 0.254481 0.158826 0.232954 0.180373C0.223578 0.189237 0.212881 0.196011 0.2039 0.205524L0.202645 0.207614C0.0731572 0.344245 6.76159e-05 0.532395 0 0.728924V10.272C0.000462206 10.4651 0.0710493 10.6502 0.196239 10.7866C0.3215 10.9231 0.491129 10.9998 0.668096 11H13.3319C13.509 10.9998 13.6788 10.923 13.804 10.7863C13.9293 10.6496 13.9997 10.4644 14 10.2711V0.728905C13.9999 0.532395 13.9268 0.344223 13.7974 0.207595L13.7973 0.207616ZM13.3207 0.418977L7 6.9039L0.679766 0.418977H13.3207ZM13.6156 10.272C13.6156 10.3541 13.5856 10.4329 13.5325 10.491C13.4793 10.5491 13.4071 10.5818 13.3319 10.5819H0.668102C0.592893 10.5818 0.52072 10.5491 0.467502 10.491C0.414348 10.4329 0.384435 10.3541 0.384369 10.272V0.728908C0.385755 0.718458 0.38767 0.708154 0.390113 0.69792L6.8684 7.34464C6.94235 7.42059 7.0577 7.42059 7.13166 7.34464L13.6098 0.69792C13.6122 0.708153 13.6141 0.718459 13.6155 0.728908L13.6156 10.272Z" fill="#483D32"/>
</svg>
