<svg width="13" height="13" viewBox="0 0 13 13" fill="none" xmlns="http://www.w3.org/2000/svg">
<path fill-rule="evenodd" clip-rule="evenodd" d="M11.751 9.54275L10.0684 8.23758C9.5136 7.80765 8.72489 7.85664 8.22872 8.35188L7.73156 8.84711C5.89837 8.52826 4.78704 7.26291 4.23195 5.24348C4.23195 5.24303 4.67152 4.80522 4.67152 4.80522C5.16824 4.30999 5.21698 3.52363 4.78623 2.97107L3.47716 1.29286C3.23154 0.978612 2.86298 0.784242 2.46425 0.759666C2.06552 0.73471 1.67554 0.881922 1.39283 1.16326C1.11249 1.44329 0.799598 1.75525 0.544302 2.00933C0.102802 2.44944 -0.0874719 3.08123 0.0378371 3.69121C0.0382978 3.69167 0.0382978 3.69213 0.0382978 3.69259C1.1009 8.75311 4.19286 11.8476 9.33632 12.9588C9.33679 12.9588 9.33725 12.9588 9.33771 12.9592C9.95089 13.0898 10.5887 12.9024 11.033 12.4613C11.2901 12.2095 11.6016 11.899 11.8811 11.6203C12.1633 11.3389 12.311 10.9497 12.2863 10.5526C12.2613 10.155 12.0667 9.78711 11.7511 9.54275L11.751 9.54275ZM9.49823 8.96836L11.1814 10.2735C11.2863 10.355 11.3513 10.4776 11.3597 10.61C11.368 10.7424 11.3188 10.8719 11.2246 10.966C10.947 11.2427 10.6378 11.5509 10.3821 11.8013C10.3812 11.8022 10.3802 11.8031 10.3792 11.8041C10.1573 12.0253 9.83845 12.1193 9.53164 12.054C4.78503 11.028 1.92838 8.17465 0.947134 3.50491C0.884939 3.19985 0.980151 2.88421 1.2006 2.66442L2.0492 1.81835C2.14342 1.72441 2.2734 1.67534 2.40663 1.68369C2.53939 1.69203 2.6624 1.75634 2.74409 1.86137L4.05317 3.53958C4.1966 3.72377 4.1804 3.98574 4.01516 4.15093L3.388 4.77576C3.27337 4.89006 3.22691 5.0558 3.26546 5.21311C3.92226 7.89427 5.39797 9.48502 7.83457 9.79878C7.97708 9.8173 8.12051 9.76869 8.22217 9.66687L8.88504 9.00645C9.05028 8.84125 9.31349 8.82502 9.4983 8.96848L9.49823 8.96836ZM6.50123 2.77686C8.55079 2.77686 10.2149 4.43608 10.2149 6.47945C10.2149 6.73499 10.4229 6.94229 10.6791 6.94229C10.9353 6.94229 11.1433 6.73499 11.1433 6.47945C11.1433 3.92509 9.06331 1.85126 6.50131 1.85126C6.24509 1.85126 6.03716 2.05864 6.03716 2.3141C6.03716 2.56955 6.24509 2.77694 6.50131 2.77694L6.50123 2.77686ZM6.50123 4.47122C7.61303 4.47122 8.51541 5.37095 8.51541 6.47939C8.51541 6.73493 8.72334 6.94223 8.97956 6.94223C9.23585 6.94223 9.44378 6.73493 9.44378 6.47939C9.44378 4.85998 8.12543 3.54562 6.50123 3.54562C6.24501 3.54562 6.03708 3.75292 6.03708 4.00838C6.03708 4.26391 6.24501 4.47122 6.50123 4.47122ZM6.50123 0.9256C9.57567 0.9256 12.0716 3.41412 12.0716 6.47939C12.0716 6.73493 12.2796 6.94223 12.5359 6.94223C12.7921 6.94223 13 6.73493 13 6.47939C13 2.9032 10.0881 0 6.50123 0C6.24501 0 6.03708 0.207383 6.03708 0.462839C6.03708 0.718295 6.24501 0.925678 6.50123 0.925678V0.9256Z" fill="#483D32"/>
</svg>
