<svg width="22" height="12" viewBox="0 0 22 12" fill="none" xmlns="http://www.w3.org/2000/svg">
<path d="M14.7029 0.07938C14.5705 0.0983978 14.4619 0.189556 14.4251 0.312481C14.3884 0.435405 14.4301 0.567573 14.532 0.650559L18.7409 4.22038C18.8074 4.28604 18.8996 4.32216 18.9952 4.31993C19.0909 4.3177 19.1811 4.27733 19.2441 4.20858C19.3071 4.13984 19.337 4.049 19.3267 3.95827C19.3163 3.86743 19.2666 3.78499 19.1896 3.7308L14.9807 0.160984C14.9055 0.095751 14.8036 0.0657807 14.7029 0.07938ZM0.334753 5.30151C0.145916 5.31841 0.00726829 5.4782 0.0249586 5.65849C0.0426489 5.83879 0.210012 5.97117 0.398848 5.95428H20.012L14.5317 10.6052C14.4547 10.6594 14.405 10.7419 14.3946 10.8327C14.3843 10.9234 14.4142 11.0143 14.4772 11.083C14.5402 11.1518 14.6304 11.1921 14.7261 11.1944C14.8217 11.1966 14.914 11.1605 14.9804 11.0948L21.1335 5.87268C21.2399 5.78312 21.2773 5.64011 21.2275 5.51336C21.1776 5.38651 21.0511 5.30225 20.9092 5.30151H0.398702C0.38802 5.30098 0.377337 5.30098 0.366655 5.30151C0.355972 5.30108 0.34529 5.30108 0.334607 5.30151L0.334753 5.30151Z" fill="#5B5753"/>
</svg>
